<svg version="1.1" xmlns="http://www.w3.org/2000/svg" xmlns:xlink="http://www.w3.org/1999/xlink" width="407" height="150" viewBox="0,0,407,150"><defs><linearGradient x1="316.68926" y1="147.27559" x2="316.68926" y2="219.48634" gradientUnits="userSpaceOnUse" id="color-1"><stop offset="0" stop-color="#fddd70"/><stop offset="1" stop-color="#e6b115"/></linearGradient><linearGradient x1="228.33334" y1="148.15884" x2="228.33334" y2="218.97557" gradientUnits="userSpaceOnUse" id="color-2"><stop offset="0" stop-color="#e06a5f"/><stop offset="1" stop-color="#bc1505"/></linearGradient><linearGradient x1="228.525" y1="161.61718" x2="228.525" y2="216.61718" gradientUnits="userSpaceOnUse" id="color-3"><stop offset="0" stop-color="#ecf5ff"/><stop offset="1" stop-color="#c1c1cf"/></linearGradient><linearGradient x1="226.65" y1="149.91717" x2="226.65" y2="172.71718" gradientUnits="userSpaceOnUse" id="color-4"><stop offset="0" stop-color="#c1c1cf"/><stop offset="1" stop-color="#ecf5ff"/></linearGradient><linearGradient x1="110.915" y1="91.94027" x2="110.915" y2="220.35" gradientUnits="userSpaceOnUse" id="color-5"><stop offset="0" stop-color="#3893ca"/><stop offset="1" stop-color="#036ba0"/></linearGradient><linearGradient x1="404" y1="116.41667" x2="404" y2="218" gradientUnits="userSpaceOnUse" id="color-6"><stop offset="0" stop-color="#71c98c"/><stop offset="1" stop-color="#34a853"/></linearGradient><linearGradient x1="370" y1="148.41667" x2="370" y2="217.5" gradientUnits="userSpaceOnUse" id="color-7"><stop offset="0" stop-color="#3893ca"/><stop offset="1" stop-color="#036ba0"/></linearGradient><linearGradient x1="370.5" y1="118.97917" x2="370.5" y2="134.97917" gradientUnits="userSpaceOnUse" id="color-8"><stop offset="0" stop-color="#3893ca"/><stop offset="1" stop-color="#036ba0"/></linearGradient></defs><g transform="translate(-32.5,-82)"><g data-paper-data="{&quot;isPaintingLayer&quot;:true}" fill-rule="nonzero" stroke-linejoin="miter" stroke-miterlimit="10" stroke-dasharray="" stroke-dashoffset="0" style="mix-blend-mode: normal"><path d="M32.5,232v-150h407v150z" fill="#ffffff" stroke="none" stroke-width="0" stroke-linecap="butt"/><path d="M289.05191,202.63027c-4.72354,-29.34121 41.03143,-29.56777 41.03143,-29.56777c0,0 2.63602,-12.31142 -10.72966,-16.03764c-5.80105,-1.61728 -22.27034,3.37098 -22.27034,3.37098l-2.66667,-7.66667c0,0 29.55828,-13.62455 44.07721,2.19609c9.62564,10.48864 5.12279,63.00391 5.12279,63.00391l-10.53333,-0.2l-0.66667,-8.33333c0,0 -37.97713,26.70077 -43.36476,-6.76557z" fill="url(#color-1)" stroke="#000000" stroke-width="0" stroke-linecap="round"/><path d="M179.5,218.97557v-70.81672h97.66667v70.81672z" fill="url(#color-2)" stroke="#000000" stroke-width="0" stroke-linecap="butt"/><path d="M228.475,192.56718l34.3,-30.95l0.4,55l-69.25,-0.4l-0.05,-54.35z" fill="url(#color-3)" stroke="#000000" stroke-width="0" stroke-linecap="round"/><path d="M203.25,149.91717l46.8,0.4l-20.8,22.4z" fill="url(#color-4)" stroke="#000000" stroke-width="0" stroke-linecap="round"/><path d="M113.47835,168.26278v-17.54262h59.11545c0.57792,3.05737 0.8762,6.67402 0.8762,10.58896c0,13.16162 -3.59801,29.43655 -15.19366,41.0322c-11.27873,11.74479 -25.6894,18.00868 -44.77935,18.00868c-35.38352,0 -65.13699,-28.82135 -65.13699,-64.20486c0,-35.38352 29.75347,-64.20486 65.13699,-64.20486c19.57465,0 33.51926,7.68072 43.99636,17.69176l-12.37864,12.37864c-7.51294,-7.04688 -17.69176,-12.52778 -31.63637,-12.52778c-25.83854,0 -46.04704,20.8237 -46.04704,46.66225c0,25.83854 20.2085,46.66225 46.04704,46.66225c16.75963,0 26.30461,-6.72995 32.41935,-12.8447c4.95891,-4.95891 8.22135,-12.04307 9.50769,-21.71854z" fill="url(#color-5)" stroke="none" stroke-width="1" stroke-linecap="butt"/><path d="M410.47917,116.41667v101.58334h-12.95833v-101.58333z" fill="url(#color-6)" stroke="none" stroke-width="1" stroke-linecap="butt"/><path d="M376.47917,148.41667v69.08334h-12.95833v-69.08334z" fill="url(#color-7)" stroke="none" stroke-width="1" stroke-linecap="butt"/><path d="M362.5,126.97917c0,-4.41828 3.58172,-8 8,-8c4.41828,0 8,3.58172 8,8c0,4.41828 -3.58172,8 -8,8c-4.41828,0 -8,-3.58172 -8,-8z" fill="url(#color-8)" stroke="none" stroke-width="0" stroke-linecap="butt"/><path d="M330.95,182.6625c0,0 2.28575,16.32136 -6.82246,23.5705c-15.35349,12.2197 -33.96973,-10.19522 -13.47093,-19.89727c5.1933,-2.45798 20.29339,-3.87323 20.29339,-3.87323" fill="#ffffff" stroke="#000000" stroke-width="0" stroke-linecap="round"/></g></g></svg>